<svg xmlns="http://www.w3.org/2000/svg" width="24" height="24" fill="none" viewBox="0 0 24 24"><path fill="#0A0A0A" d="M19 4.6H5a.4.4 0 0 0-.4.4v14c0 .22.18.4.4.4h11a.8.8 0 0 1 0 1.6H5a2 2 0 0 1-2-2V5a2 2 0 0 1 2-2h14a2 2 0 0 1 2 2v8.8a.8.8 0 0 1-1.6 0V5a.4.4 0 0 0-.4-.4"></path><path fill="#0A0A0A" d="M18.098 13.064a.8.8 0 0 0-.86-.735c-4.341.344-8.103 1.502-10.054 5.001a.8.8 0 1 0 1.397.78c1.538-2.76 4.562-3.851 8.782-4.186a.8.8 0 0 0 .735-.86M8.5 10a1.5 1.5 0 1 0 0-3 1.5 1.5 0 0 0 0 3M20.9 16.2v1.2h1.2a.8.8 0 0 1 0 1.6h-1.2v1.2a.8.8 0 1 1-1.6 0V19h-1.2a.8.8 0 1 1 0-1.6h1.2v-1.2a.8.8 0 0 1 1.6 0"></path></svg>