<svg xmlns="http://www.w3.org/2000/svg" width="24" height="24" fill="none" viewBox="0 0 24 24"><path fill="#0A0A0A" fill-rule="evenodd" d="M17.47 8.893C18.886 8.185 19 7.577 19 7.5s-.114-.685-1.53-1.393C16.173 5.459 14.242 5 12 5s-4.173.459-5.47 1.107C5.114 6.815 5 7.423 5 7.5s.114.685 1.53 1.393C7.827 9.541 9.758 10 12 10s4.173-.459 5.47-1.107M21 7.5c0 2.485-4.03 4.5-9 4.5S3 9.985 3 7.5 7.03 3 12 3s9 2.015 9 4.5m-17 4a1 1 0 0 1 1 1c0 .137.053.327.262.573.389.457 1.196.953 2.42 1.331 1.196.37 2.686.596 4.318.596s3.123-.226 4.319-.596c1.223-.378 2.03-.874 2.42-1.331.208-.246.261-.436.261-.573a1 1 0 1 1 2 0c0 .721-.3 1.354-.738 1.869-.743.873-1.967 1.517-3.352 1.946-1.412.437-3.105.685-4.91.685s-3.498-.248-4.91-.685c-1.385-.429-2.609-1.073-3.352-1.946C3.301 13.854 3 13.22 3 12.5a1 1 0 0 1 1-1M5 17a1 1 0 1 0-2 0c0 .721.3 1.354.738 1.869.743.873 1.967 1.517 3.352 1.946 1.412.437 3.105.685 4.91.685s3.498-.248 4.91-.685c1.385-.429 2.609-1.073 3.352-1.946.437-.515.738-1.148.738-1.869a1 1 0 1 0-2 0c0 .137-.053.327-.262.573-.389.457-1.196.953-2.42 1.331-1.196.37-2.686.596-4.318.596s-3.122-.226-4.319-.596c-1.223-.378-2.03-.874-2.42-1.331C5.054 17.327 5 17.137 5 17" clip-rule="evenodd"></path></svg>