<svg xmlns="http://www.w3.org/2000/svg" fill="none" viewBox="0 0 20 20"><path fill="#0A0A0A" fill-opacity="0.5" fill-rule="evenodd" d="M8.5 1.667a1 1 0 0 0-1 1V3h5v-.333a1 1 0 0 0-1-1zm-6 2.625c0-.346.28-.625.625-.625h13.75a.625.625 0 1 1 0 1.25h-.658V15.8a2 2 0 0 1-2 2H5.783a2 2 0 0 1-2-2V4.917h-.658a.625.625 0 0 1-.625-.625m2.883.625h9.234V15.8a.4.4 0 0 1-.4.4H5.783a.4.4 0 0 1-.4-.4zm2.95 2.95a.8.8 0 0 1 .8.8V12a.8.8 0 0 1-1.6 0V8.667a.8.8 0 0 1 .8-.8m4.134.8a.8.8 0 0 0-1.6 0V12a.8.8 0 1 0 1.6 0z" clip-rule="evenodd"></path></svg>