<svg xmlns="http://www.w3.org/2000/svg" width="20" height="20" fill="none" viewBox="0 0 20 20"><path fill="#0A0A0A" fill-opacity="0.5" fill-rule="evenodd" d="M10 2.409a.8.8 0 0 1 .8.8v8.084l2.487-2.208a.8.8 0 0 1 1.062 1.197l-3.818 3.39a.8.8 0 0 1-1.062 0l-3.818-3.39a.8.8 0 0 1 1.063-1.197L9.2 11.293V3.21a.8.8 0 0 1 .8-.8m7.588 10.633a.8.8 0 0 0-1.6 0v2.25c0 .68-.553 1.233-1.234 1.233H5.247a1.234 1.234 0 0 1-1.234-1.234v-2.249a.8.8 0 0 0-1.6 0v2.249a2.834 2.834 0 0 0 2.834 2.834h9.507a2.834 2.834 0 0 0 2.834-2.834z" clip-rule="evenodd"></path></svg>