<svg xmlns="http://www.w3.org/2000/svg" xmlns:xlink="http://www.w3.org/1999/xlink" viewBox="0 0 112 112" width="112" height="112" class="lottie-render" preserveAspectRatio="xMidYMid meet" style="width: 100%; height: 100%; transform: translate3d(0px, 0px, 0px); content-visibility: visible;"><defs><clipPath id="__lottie_element_104"><rect width="112" height="112" x="0" y="0"></rect></clipPath><clipPath id="__lottie_element_106"><path d="M0,0 L20000,0 L20000,20000 L0,20000z"></path></clipPath><linearGradient id="__lottie_element_112" spreadMethod="pad" gradientUnits="userSpaceOnUse" x1="-2.5480000972747803" y1="0.2919999957084656" x2="2.2760000228881836" y2="0.9860000014305115"><stop offset="0%" stop-color="rgb(13,246,255)" stop-opacity="1"></stop><stop offset="25%" stop-color="rgb(13,250,219)" stop-opacity="1"></stop><stop offset="50%" stop-color="rgb(13,255,182)" stop-opacity="1"></stop><stop offset="75%" stop-color="rgb(126,255,162)" stop-opacity="1"></stop><stop offset="100%" stop-color="rgb(239,255,142)" stop-opacity="1"></stop></linearGradient><clipPath id="__lottie_element_114"><path d="M0,0 L20000,0 L20000,20000 L0,20000z"></path></clipPath><linearGradient id="__lottie_element_120" spreadMethod="pad" gradientUnits="userSpaceOnUse" x1="-2.5480000972747803" y1="0.2919999957084656" x2="2.2760000228881836" y2="0.9860000014305115"><stop offset="0%" stop-color="rgb(13,246,255)" stop-opacity="1"></stop><stop offset="25%" stop-color="rgb(13,250,219)" stop-opacity="1"></stop><stop offset="50%" stop-color="rgb(13,255,182)" stop-opacity="1"></stop><stop offset="75%" stop-color="rgb(126,255,162)" stop-opacity="1"></stop><stop offset="100%" stop-color="rgb(239,255,142)" stop-opacity="1"></stop></linearGradient><clipPath id="__lottie_element_122"><path d="M0,0 L20000,0 L20000,20000 L0,20000z"></path></clipPath><linearGradient id="__lottie_element_128" spreadMethod="pad" gradientUnits="userSpaceOnUse" x1="-2.5480000972747803" y1="0.2919999957084656" x2="2.2760000228881836" y2="0.9860000014305115"><stop offset="0%" stop-color="rgb(13,246,255)" stop-opacity="1"></stop><stop offset="25%" stop-color="rgb(13,250,219)" stop-opacity="1"></stop><stop offset="50%" stop-color="rgb(13,255,182)" stop-opacity="1"></stop><stop offset="75%" stop-color="rgb(126,255,162)" stop-opacity="1"></stop><stop offset="100%" stop-color="rgb(239,255,142)" stop-opacity="1"></stop></linearGradient><clipPath id="__lottie_element_130"><path d="M0,0 L20000,0 L20000,20000 L0,20000z"></path></clipPath><linearGradient id="__lottie_element_136" spreadMethod="pad" gradientUnits="userSpaceOnUse" x1="-20.31599998474121" y1="1.6369999647140503" x2="22.579999923706055" y2="12.614999771118164"><stop offset="0%" stop-color="rgb(13,246,255)" stop-opacity="1"></stop><stop offset="25%" stop-color="rgb(13,250,219)" stop-opacity="1"></stop><stop offset="50%" stop-color="rgb(13,255,182)" stop-opacity="1"></stop><stop offset="75%" stop-color="rgb(126,255,162)" stop-opacity="1"></stop><stop offset="100%" stop-color="rgb(239,255,142)" stop-opacity="1"></stop></linearGradient></defs><g clip-path="url(#__lottie_element_104)"><g clip-path="url(#__lottie_element_130)" style="display: block;" transform="matrix(1.0700000524520874,0,0,1.0700000524520874,-10646.4267578125,-10646.4267578125)" opacity="1"><g style="display: block;" transform="matrix(1,0,0,1,10000,10000)" opacity="1"><g opacity="1" transform="matrix(2,0,0,2,0,0)"><path fill="url(#__lottie_element_136)" fill-opacity="1" d=" M8.843000411987305,8.843000411987305 C9.234000205993652,8.45199966430664 9.866000175476074,8.45199966430664 10.256999969482422,8.843000411987305 C10.256999969482422,8.843000411987305 17.327999114990234,15.913999557495117 17.327999114990234,15.913999557495117 C17.7189998626709,16.30500030517578 17.7189998626709,16.937000274658203 17.327999114990234,17.327999114990234 C16.937000274658203,17.7189998626709 16.30500030517578,17.7189998626709 15.913999557495117,17.327999114990234 C15.913999557495117,17.327999114990234 8.843000411987305,10.256999969482422 8.843000411987305,10.256999969482422 C8.45199966430664,9.866000175476074 8.45199966430664,9.234000205993652 8.843000411987305,8.843000411987305 C8.843000411987305,8.843000411987305 8.843000411987305,8.843000411987305 8.843000411987305,8.843000411987305z M-12.189000129699707,-12.666000366210938 C-12.189000129699707,-12.666000366210938 -2.4070000648498535,-9.645999908447266 -2.4070000648498535,-9.645999908447266 C-2.4070000648498535,-9.645999908447266 5.961999893188477,-15.54800033569336 5.961999893188477,-15.54800033569336 C6.211999893188477,-15.723999977111816 6.558000087738037,-15.54800033569336 6.561999797821045,-15.241999626159668 C6.561999797821045,-15.241999626159668 6.702000141143799,-5.008999824523926 6.702000141143799,-5.008999824523926 C6.702000141143799,-5.008999824523926 14.895000457763672,1.121999979019165 14.895000457763672,1.121999979019165 C15.140000343322754,1.3049999475479126 15.079999923706055,1.687999963760376 14.789999961853027,1.7869999408721924 C14.789999961853027,1.7869999408721924 5.0960001945495605,5.09499979019165 5.0960001945495605,5.09499979019165 C5.0960001945495605,5.09499979019165 1.7879999876022339,14.788999557495117 1.7879999876022339,14.788999557495117 C1.6890000104904175,15.079000473022461 1.305999994277954,15.138999938964844 1.1230000257492065,14.894000053405762 C1.1230000257492065,14.894000053405762 -5.007999897003174,6.701000213623047 -5.007999897003174,6.701000213623047 C-5.007999897003174,6.701000213623047 -15.241000175476074,6.560999870300293 -15.241000175476074,6.560999870300293 C-15.54699993133545,6.557000160217285 -15.722999572753906,6.210999965667725 -15.54699993133545,5.960999965667725 C-15.54699993133545,5.960999965667725 -9.645000457763672,-2.4070000648498535 -9.645000457763672,-2.4070000648498535 C-9.645000457763672,-2.4070000648498535 -12.664999961853027,-12.1899995803833 -12.664999961853027,-12.1899995803833 C-12.755000114440918,-12.482000350952148 -12.480999946594238,-12.755999565124512 -12.189000129699707,-12.666000366210938 C-12.189000129699707,-12.666000366210938 -12.189000129699707,-12.666000366210938 -12.189000129699707,-12.666000366210938z M-11.845999717712402,-2.756999969482422 C-11.845999717712402,-2.756999969482422 -17.18199920654297,4.809000015258789 -17.18199920654297,4.809000015258789 C-18.285999298095703,6.374000072479248 -17.18400001525879,8.53499984741211 -15.269000053405762,8.560999870300293 C-15.269000053405762,8.560999870300293 -6.019999980926514,8.687999725341797 -6.019999980926514,8.687999725341797 C-6.019999980926514,8.687999725341797 -0.4790000021457672,16.093000411987305 -0.4790000021457672,16.093000411987305 C0.6679999828338623,17.625 3.062999963760376,17.246000289916992 3.680999994277954,15.4350004196167 C3.680999994277954,15.4350004196167 6.671000003814697,6.671000003814697 6.671000003814697,6.671000003814697 C6.671000003814697,6.671000003814697 15.435999870300293,3.680000066757202 15.435999870300293,3.680000066757202 C17.246999740600586,3.062000036239624 17.625,0.6679999828338623 16.093000411987305,-0.4790000021457672 C16.093000411987305,-0.4790000021457672 8.687999725341797,-6.019999980926514 8.687999725341797,-6.019999980926514 C8.687999725341797,-6.019999980926514 8.562000274658203,-15.269000053405762 8.562000274658203,-15.269000053405762 C8.53600025177002,-17.18400001525879 6.374000072479248,-18.285999298095703 4.809000015258789,-17.18199920654297 C4.809000015258789,-17.18199920654297 -2.75600004196167,-11.847000122070312 -2.75600004196167,-11.847000122070312 C-2.75600004196167,-11.847000122070312 -11.598999977111816,-14.57699966430664 -11.598999977111816,-14.57699966430664 C-13.427000045776367,-15.140999794006348 -15.140000343322754,-13.428000450134277 -14.576000213623047,-11.600000381469727 C-14.576000213623047,-11.600000381469727 -11.845999717712402,-2.756999969482422 -11.845999717712402,-2.756999969482422 C-11.845999717712402,-2.756999969482422 -11.845999717712402,-2.756999969482422 -11.845999717712402,-2.756999969482422z"></path><g opacity="1" transform="matrix(1,0,0,1,0,0)"></g><g opacity="1" transform="matrix(1,0,0,1,0,0)"></g><g opacity="1" transform="matrix(1,0,0,1,0,0)"></g></g></g></g><g clip-path="url(#__lottie_element_122)" style="display: block;" transform="matrix(1,0,0,1,-9969,-9910)" opacity="0.06956315789567655"><g style="display: block;" transform="matrix(1,0,0,1,10000,10000)" opacity="1"><g opacity="1" transform="matrix(2,0,0,2,0,0)"><path fill="url(#__lottie_element_128)" fill-opacity="1" d=" M0,-3 C0.2759999930858612,-3 0.5,-2.7760000228881836 0.5,-2.5 C0.5,-2.5 0.5,-0.5 0.5,-0.5 C0.5,-0.5 2.5,-0.5 2.5,-0.5 C2.7760000228881836,-0.5 3,-0.2759999930858612 3,0 C3,0.2759999930858612 2.7760000228881836,0.5 2.5,0.5 C2.5,0.5 0.5,0.5 0.5,0.5 C0.5,0.5 0.5,2.5 0.5,2.5 C0.5,2.7760000228881836 0.2759999930858612,3 0,3 C-0.2759999930858612,3 -0.5,2.7760000228881836 -0.5,2.5 C-0.5,2.5 -0.5,0.5 -0.5,0.5 C-0.5,0.5 -2.5,0.5 -2.5,0.5 C-2.7760000228881836,0.5 -3,0.2759999930858612 -3,0 C-3,-0.2759999930858612 -2.7760000228881836,-0.5 -2.5,-0.5 C-2.5,-0.5 -0.5,-0.5 -0.5,-0.5 C-0.5,-0.5 -0.5,-2.5 -0.5,-2.5 C-0.5,-2.7760000228881836 -0.2759999930858612,-3 0,-3 C0,-3 0,-3 0,-3z"></path></g></g></g><g clip-path="url(#__lottie_element_114)" style="display: block;" transform="matrix(1,0,0,1,-9988,-9982.5)" opacity="0.3957675675685327"><g style="display: block;" transform="matrix(1,0,0,1,10000,10000)" opacity="1"><g opacity="1" transform="matrix(2,0,0,2,0,0)"><path fill="url(#__lottie_element_120)" fill-opacity="1" d=" M-3,0 C-3,-0.2759999930858612 -2.7760000228881836,-0.5 -2.5,-0.5 C-2.5,-0.5 -0.5,-0.5 -0.5,-0.5 C-0.5,-0.5 -0.5,-2.5 -0.5,-2.5 C-0.5,-2.7760000228881836 -0.2759999930858612,-3 0,-3 C0.2759999930858612,-3 0.5,-2.7760000228881836 0.5,-2.5 C0.5,-2.5 0.5,-0.5 0.5,-0.5 C0.5,-0.5 2.5,-0.5 2.5,-0.5 C2.7760000228881836,-0.5 3,-0.2759999930858612 3,0 C3,0.2759999930858612 2.7760000228881836,0.5 2.5,0.5 C2.5,0.5 0.5,0.5 0.5,0.5 C0.5,0.5 0.5,2.5 0.5,2.5 C0.5,2.7760000228881836 0.2759999930858612,3 0,3 C-0.2759999930858612,3 -0.5,2.7760000228881836 -0.5,2.5 C-0.5,2.5 -0.5,0.5 -0.5,0.5 C-0.5,0.5 -2.5,0.5 -2.5,0.5 C-2.7760000228881836,0.5 -3,0.2759999930858612 -3,0 C-3,0 -3,0 -3,0z"></path></g></g></g><g clip-path="url(#__lottie_element_106)" style="display: block;" transform="matrix(0.9828928709030151,0.2913859486579895,-0.2913859486579895,0.9828928709030151,-6819.0693359375,-12709.095703125)" opacity="0.9370619047610544"><g style="display: block;" transform="matrix(1,0,0,1,10000,10000)" opacity="1"><g opacity="1" transform="matrix(2,0,0,2,0,0)"><path fill="url(#__lottie_element_112)" fill-opacity="1" d=" M0,-3 C0.2759999930858612,-3 0.5,-2.7760000228881836 0.5,-2.5 C0.5,-2.5 0.5,-0.5 0.5,-0.5 C0.5,-0.5 2.5,-0.5 2.5,-0.5 C2.7760000228881836,-0.5 3,-0.2759999930858612 3,0 C3,0.2759999930858612 2.7760000228881836,0.5 2.5,0.5 C2.5,0.5 0.5,0.5 0.5,0.5 C0.5,0.5 0.5,2.5 0.5,2.5 C0.5,2.7760000228881836 0.2759999930858612,3 0,3 C-0.2759999930858612,3 -0.5,2.7760000228881836 -0.5,2.5 C-0.5,2.5 -0.5,0.5 -0.5,0.5 C-0.5,0.5 -2.5,0.5 -2.5,0.5 C-2.7760000228881836,0.5 -3,0.2759999930858612 -3,0 C-3,-0.2759999930858612 -2.7760000228881836,-0.5 -2.5,-0.5 C-2.5,-0.5 -0.5,-0.5 -0.5,-0.5 C-0.5,-0.5 -0.5,-2.5 -0.5,-2.5 C-0.5,-2.7760000228881836 -0.2759999930858612,-3 0,-3 C0,-3 0,-3 0,-3z"></path></g></g></g></g></svg>