<svg width="24px" height="24px" fill="var(--negative-base-default)" viewBox="0 0 24 24" xmlns="http://www.w3.org/2000/svg"><path d="M12.75 2.492a.667.667 0 0 0-.234-.515.668.668 0 0 0-.516-.235.741.741 0 0 0-.54.235.701.701 0 0 0-.21.515v20.016c0 .203.07.375.21.515a.741.741 0 0 0 .54.235.667.667 0 0 0 .516-.235.667.667 0 0 0 .234-.515V2.492zm-9 6c0-.89.313-1.648.938-2.273.64-.64 1.414-.961 2.32-.961h2.437c.203 0 .375-.07.516-.211a.741.741 0 0 0 .234-.54.693.693 0 0 0-.234-.538.701.701 0 0 0-.516-.211H7.008c-.656 0-1.274.125-1.852.375A4.857 4.857 0 0 0 2.625 6.64a4.615 4.615 0 0 0-.375 1.851v8.016c0 .656.125 1.273.375 1.851.25.563.586 1.063 1.008 1.5.437.422.945.758 1.523 1.008s1.196.375 1.852.375h2.437c.203 0 .375-.07.516-.21a.693.693 0 0 0 .234-.54.667.667 0 0 0-.234-.515.667.667 0 0 0-.516-.235H7.008c-.906 0-1.68-.312-2.32-.937a3.174 3.174 0 0 1-.938-2.297V8.492zm15.328-4.265a.642.642 0 0 0-.562-.024.635.635 0 0 0-.422.375.763.763 0 0 0-.047.586.711.711 0 0 0 .375.422c.312.156.594.36.844.61.25.234.46.507.632.82a.711.711 0 0 0 .422.375.763.763 0 0 0 .586-.047.8.8 0 0 0 .375-.446.763.763 0 0 0-.047-.585 4.27 4.27 0 0 0-.914-1.196 4.741 4.741 0 0 0-1.242-.89zm-.984 16.359a.7.7 0 0 0 .984.352 4.331 4.331 0 0 0 1.242-.868c.375-.36.68-.765.914-1.218a.71.71 0 0 0 .047-.563.71.71 0 0 0-.375-.445.647.647 0 0 0-.586-.047.725.725 0 0 0-.422.351 3.725 3.725 0 0 1-.632.844c-.25.25-.532.445-.844.586a.712.712 0 0 0-.375.445.71.71 0 0 0 .047.563zM21.75 9.055a.667.667 0 0 0-.234-.516.668.668 0 0 0-.516-.234.741.741 0 0 0-.54.234.701.701 0 0 0-.21.516v2.297c0 .203.07.382.21.539.157.14.337.21.54.21s.375-.07.516-.21a.74.74 0 0 0 .234-.54V9.056zm-.75 3.96c.203 0 .375.079.516.235.156.14.234.313.234.516v2.226a.693.693 0 0 1-.234.54.701.701 0 0 1-.516.21.782.782 0 0 1-.54-.21.73.73 0 0 1-.21-.54v-2.226c0-.204.07-.375.21-.516a.741.741 0 0 1 .54-.234zm-6.492-9.257a.73.73 0 0 0-.54.21.73.73 0 0 0-.21.54c0 .203.07.383.21.539.141.14.321.21.54.21H16.5c.203 0 .375-.07.516-.21a.74.74 0 0 0 .234-.54.693.693 0 0 0-.234-.538.701.701 0 0 0-.516-.211h-1.992zm-.75 16.734c0-.203.07-.375.21-.515a.693.693 0 0 1 .54-.235H16.5c.203 0 .375.078.516.235.156.14.234.312.234.515a.693.693 0 0 1-.234.54.701.701 0 0 1-.516.21h-1.992a.73.73 0 0 1-.54-.21.73.73 0 0 1-.21-.54z"></path></svg>