<svg width="24" height="24" fill="none" viewBox="0 0 24 24" xmlns="http://www.w3.org/2000/svg" class="button-skin-icon-0-1-362 button-skin-icon-d2878-0-1-2346" data-testid="start-icon"><path d="M12 16.781c.203 0 .375-.07.516-.21a.74.74 0 0 0 .234-.54V4.571L15 6.82c.156.14.336.21.54.21.202 0 .374-.07.515-.21a.741.741 0 0 0 .234-.54.668.668 0 0 0-.234-.515l-3.516-3.54A.741.741 0 0 0 12 1.993a.741.741 0 0 0-.54.235L7.946 5.766a.668.668 0 0 0-.234.515c0 .203.078.383.234.54.14.14.313.21.516.21s.383-.07.539-.21l2.25-2.25v11.46c0 .203.07.383.21.54.157.14.337.21.54.21zm-9.305-3.773c.188 0 .352.07.493.21.14.126.21.29.21.493v3.797c0 .844.29 1.57.868 2.18.593.593 1.312.89 2.156.89h11.156c.844 0 1.555-.297 2.133-.89.594-.61.89-1.336.89-2.18V13.71c0-.203.07-.367.212-.492a.674.674 0 0 1 .492-.211c.187 0 .351.07.492.21.14.126.21.29.21.493v3.797c0 1.234-.437 2.297-1.312 3.187-.86.875-1.898 1.313-3.117 1.313H6.422c-1.219 0-2.266-.438-3.14-1.313-.86-.89-1.29-1.953-1.29-3.187V13.71c0-.203.07-.367.211-.492a.674.674 0 0 1 .492-.211z"></path></svg>